<svg viewBox="0 0 348 348" fill="none" xmlns="http://www.w3.org/2000/svg"><path d="M342 6H5v337h337Z" stroke-width="2" stroke="#000"/><g stroke-width="2" stroke="#000"><path d="M281 53c0-7 5-14 13-14 4 0 7 3 10 4 3 3 4 6 4 10 0 8-7 14-14 14-8 0-13-6-13-14z" stroke-width="1.8"/><path d="M264 24h60v60h-60z" stroke-width="1.8"/></g><g stroke-width="2" stroke="#000"><path d="M199 53c0-7 5-14 13-14 4 0 7 3 10 4 3 3 4 6 4 10 0 8-7 14-14 14-8 0-13-6-13-14z" stroke-width="1.8"/><path d="M182 24h60v60h-60z" stroke-width="1.8"/></g><g stroke-width="2" stroke="#000"><path d="M119 53c0-7 5-14 13-14 4 0 7 3 10 4 3 3 4 6 4 10 0 8-7 14-14 14-8 0-13-6-13-14z" stroke-width="1.8"/><path d="M102 24h60v60h-60z" stroke-width="1.8"/></g><g stroke-width="2" stroke="#000"><path d="M39 53c0-7 5-14 13-14 4 0 7 3 10 4 3 3 4 6 4 10 0 8-7 14-14 14-8 0-13-6-13-14z" stroke-width="1.8"/><path d="M22 24h60v60H22z" stroke-width="1.8"/></g><g stroke-width="2" stroke="#000"><path d="M281 133c0-7 5-14 13-14 4 0 7 3 10 4 3 3 4 6 4 10 0 8-7 14-14 14-8 0-13-6-13-14z" stroke-width="1.8"/><path d="M264 104h60v60h-60z" stroke-width="1.8"/></g><g stroke-width="2" stroke="#000"><path d="M199 133c0-7 5-14 13-14 4 0 7 3 10 4 3 3 4 6 4 10 0 8-7 14-14 14-8 0-13-6-13-14z" stroke-width="1.8"/><path d="M182 104h60v60h-60z" stroke-width="1.8"/></g><g stroke-width="2" stroke="#000"><path d="M119 133c0-7 5-14 13-14 4 0 7 3 10 4 3 3 4 6 4 10 0 8-7 14-14 14-8 0-13-6-13-14z" stroke-width="1.8"/><path d="M102 104h60v60h-60z" stroke-width="1.8"/></g><g stroke-width="2" stroke="#000"><path d="M39 133c0-7 5-14 13-14 4 0 7 3 10 4 3 3 4 6 4 10 0 8-7 14-14 14-8 0-13-6-13-14z" stroke-width="1.8"/><path d="M22 104h60v60H22z" stroke-width="1.8"/></g><g stroke-width="2" stroke="#000"><path d="M281 213c0-7 5-14 13-14 4 0 7 3 10 4 3 3 4 6 4 10 0 8-7 14-14 14-8 0-13-6-13-14z" stroke-width="1.8"/><path d="M264 184h60v60h-60z" stroke-width="1.8"/></g><g stroke-width="2" stroke="#000"><path d="M199 213c0-7 5-14 13-14 4 0 7 3 10 4 3 3 4 6 4 10 0 8-7 14-14 14-8 0-13-6-13-14z" stroke-width="1.8"/><path d="M182 184h60v60h-60z" stroke-width="1.8"/></g><g stroke-width="2" stroke="#000"><path d="M119 213c0-7 5-14 13-14 4 0 7 3 10 4 3 3 4 6 4 10 0 8-7 14-14 14-8 0-13-6-13-14z" stroke-width="1.8"/><path d="M102 184h60v60h-60z" stroke-width="1.8"/></g><g stroke-width="2" stroke="#000"><path d="M39 213c0-7 5-14 13-14 4 0 7 3 10 4 3 3 4 6 4 10 0 8-7 14-14 14-8 0-13-6-13-14z" stroke-width="1.8"/><path d="M22 184h60v60H22z" stroke-width="1.8"/></g><g stroke-width="2" stroke="#000"><path d="M281 293c0-7 5-14 13-14 4 0 7 3 10 4 3 3 4 6 4 10 0 8-7 14-14 14-8 0-13-6-13-14z" stroke-width="1.8"/><path d="M264 264h60v60h-60z" stroke-width="1.8"/></g><g stroke-width="2" stroke="#000"><path d="M199 293c0-7 5-14 13-14 4 0 7 3 10 4 3 3 4 6 4 10 0 8-7 14-14 14-8 0-13-6-13-14z" stroke-width="1.8"/><path d="M182 264h60v60h-60z" stroke-width="1.8"/></g><g stroke-width="2" stroke="#000"><path d="M119 293c0-7 5-14 13-14 4 0 7 3 10 4 3 3 4 6 4 10 0 8-7 14-14 14-8 0-13-6-13-14z" stroke-width="1.8"/><path d="M102 264h60v60h-60z" stroke-width="1.8"/></g><g stroke-width="2" stroke="#000"><path d="M39 293c0-7 5-14 13-14 4 0 7 3 10 4 3 3 4 6 4 10 0 8-7 14-14 14-8 0-13-6-13-14z" stroke-width="1.8"/><path d="M22 264h60v60H22z" stroke-width="1.8"/></g><g stroke="#000" stroke-width="2"><path d="M27 84v20M41 84v20M63 84v20M77 84v20M107 84v20M121 84v20M143 84v20M157 84v20"/><g><path d="M187 84v20M201 84v20"/></g><g><path d="M223 84v20M237 84v20"/></g><g><path d="M267 84v20M281 84v20"/></g><g><path d="M303 84v20M317 84v20"/></g><g><path d="M27 164v20M41 164v20M63 164v20M77 164v20M107 164v20M121 164v20M143 164v20M157 164v20"/><g><path d="M187 164v20M201 164v20"/></g><g><path d="M223 164v20M237 164v20"/></g><g><path d="M267 164v20M281 164v20"/></g><g><path d="M303 164v20M317 164v20"/></g></g><g><path d="M27 244v20M41 244v20M63 244v20M77 244v20M107 244v20M121 244v20M143 244v20M157 244v20"/><g><path d="M187 244v20M201 244v20"/></g><g><path d="M223 244v20M237 244v20"/></g><g><path d="M267 244v20M281 244v20"/></g><g><path d="M303 244v20M317 244v20"/></g></g></g><g stroke="#000" stroke-width="2"><path d="M29 84v20M43 84v20" transform="matrix(0 .99994 -1.0057 0 347 0)"/><path d="M29 84v20M43 84v20" transform="matrix(0 .99994 -1.0057 0 347 36)"/><path d="M29 84v20M43 84v20" transform="matrix(0 .99994 -1.0057 0 347 80)"/><path d="M29 84v20M43 84v20" transform="matrix(0 .99994 -1.0057 0 347 116)"/><g><path d="M29 84v20M43 84v20" transform="matrix(0 .99994 -1.0057 0 347 160)"/></g><g><path d="M29 84v20M43 84v20" transform="matrix(0 .99994 -1.0057 0 347 196)"/></g><g><path d="M29 84v20M43 84v20" transform="matrix(0 .99994 -1.0057 0 347 240)"/></g><g><path d="M29 84v20M43 84v20" transform="matrix(0 .99994 -1.0057 0 347 276)"/></g><g><path d="M29 84v20M43 84v20" transform="matrix(0 .99994 -1.0057 0 267 0)"/><path d="M29 84v20M43 84v20" transform="matrix(0 .99994 -1.0057 0 267 36)"/><path d="M29 84v20M43 84v20" transform="matrix(0 .99994 -1.0057 0 267 80)"/><path d="M29 84v20M43 84v20" transform="matrix(0 .99994 -1.0057 0 267 116)"/><g><path d="M29 84v20M43 84v20" transform="matrix(0 .99994 -1.0057 0 267 160)"/></g><g><path d="M29 84v20M43 84v20" transform="matrix(0 .99994 -1.0057 0 267 196)"/></g><g><path d="M29 84v20M43 84v20" transform="matrix(0 .99994 -1.0057 0 267 240)"/></g><g><path d="M29 84v20M43 84v20" transform="matrix(0 .99994 -1.0057 0 267 276)"/></g></g><g><path d="M29 84v20M43 84v20" transform="matrix(0 .99994 -1.0057 0 186 0)"/><path d="M29 84v20M43 84v20" transform="matrix(0 .99994 -1.0057 0 186 36)"/><path d="M29 84v20M43 84v20" transform="matrix(0 .99994 -1.0057 0 186 80)"/><path d="M29 84v20M43 84v20" transform="matrix(0 .99994 -1.0057 0 186 116)"/><g><path d="M29 84v20M43 84v20" transform="matrix(0 .99994 -1.0057 0 186 160)"/></g><g><path d="M29 84v20M43 84v20" transform="matrix(0 .99994 -1.0057 0 186 196)"/></g><g><path d="M29 84v20M43 84v20" transform="matrix(0 .99994 -1.0057 0 186 240)"/></g><g><path d="M29 84v20M43 84v20" transform="matrix(0 .99994 -1.0057 0 186 276)"/></g></g></g></svg>